{"title":"Blinky Bill the Movie (2015) 1080P WEB-DL DD5 1 H 264","uid":13859413,"size":3973462485,"categoryP":"video","categoryS":"hd___movies","magnet":"?xt=urn:btih:7e965a7f166ef0bc1c9dc258e7b47f6ed0c0d197&amp;dn=Blinky+Bill+the+Movie+%282015%29+1080P+WEB-DL+DD5+1+H+264&amp;tr=udp%3A%2F%2Ftracker.leechers-paradise.org%3A6969&amp;tr=udp%3A%2F%2Fzer0day.ch%3A1337&amp;tr=udp%3A%2F%2Fopen.demonii.com%3A1337&amp;tr=udp%3A%2F%2Ftracker.coppersurfer.tk%3A6969&amp;tr=udp%3A%2F%2Fexodus.desync.com%3A6969","seeders":1,"leechers":5,"uploader":"jmanwf","files":2,"time":1458018597,"description":"Blinky Bill is a little koala with a big imagination. An adventurer at heart, he dreams of leaving the little town of Green Patch and following in his missing fatherâ™s footsteps. When Blinky discovers a mysterious marker that hints at his Dadâ™s whereabouts, he embarks on a journey that takes him beyond the boundary of Green Patch and into the wild and dangerous Outback. He quickly makes friends with Nutsy, a zoo koala, and Jacko, a nervous frill-necked lizard. Pursued relentlessly by a vengeful Cat who has a personal score to settle with Blinky, the trio must learn to work together if they ever want to survive the rugged Australian landscape and find Blinkyâ™s father!\r\n\r\n\r\nVideo\r\nID : 2\r\nFormat : AVC\r\nFormat/Info : Advanced Video Codec\r\nFormat profile :   \r\nFormat settings, CABAC : Yes\r\nFormat settings, ReFrames : 4 frames\r\nCodec ID : avc1\r\nCodec ID/Info : Advanced Video Coding\r\nDuration : 1h 31mn\r\nBit rate : 5 303 Kbps\r\nWidth : 1 916 pixels\r\nHeight : 1 036 pixels\r\nDisplay aspect ratio : 1.85:1\r\nFrame rate mode : Constant\r\nFrame rate : 23.976 fps\r\nColor space : YUV\r\nChroma subsampling : 4:2:0\r\nBit depth : 8 bits\r\nScan type : Progressive\r\nBits/(Pixel*Frame) : 0.111\r\nStream size : 3.37 GiB (91%)\r\nLanguage : English\r\nEncoded date : UTC 2016-03-13 07:35:02\r\nTagged date : UTC 2016-03-13 07:44:34\r\nColor range : Limited\r\nColor primaries : BT.709\r\nTransfer characteristics : BT.709\r\nMatrix coefficients : BT.709\r\n\r\nAudio #1\r\nID : 1\r\nFormat : AAC\r\nFormat/Info : Advanced Audio Codec\r\nFormat profile : LC\r\nCodec ID : 40\r\nDuration : 1h 31mn\r\nBit rate mode : Variable\r\nBit rate : 126 Kbps\r\nMaximum bit rate : 197 Kbps\r\nChannel(s) : 2 channels\r\nChannel positions : Front: L R\r\nSampling rate : 48.0 KHz\r\nCompression mode : Lossy\r\nStream size : 82.0 MiB (2%)\r\nLanguage : English\r\nEncoded date : UTC 2016-03-13 07:35:02\r\nTagged date : UTC 2016-03-13 07:44:34\r\n\r\nAudio #2\r\nID : 3\r\nFormat : AC-3\r\nFormat/Info : Audio Coding 3\r\nMode extension : CM (complete main)\r\nFormat settings, Endianness : Big\r\nCodec ID : ac-3\r\nDuration : 1h 31mn\r\nBit rate mode : Constant\r\nBit rate : 384 Kbps\r\nChannel(s) : 6 channels\r\nChannel positions : Front: L C R, Side: L R, LFE\r\nSampling rate : 48.0 KHz\r\nBit depth : 16 bits\r\nCompression mode : Lossy\r\nStream size : 250 MiB (7%)\r\nLanguage : English\r\nEncoded date : UTC 2016-03-13 07:35:02\r\nTagged date : UTC 2016-03-13 07:44:34\r\n\r\nText\r\nID : 4-CC1\r\nFormat : EIA-608\r\nMuxing mode : Final Cut\r\nCodec ID : c608\r\nDuration : 1h 31mn\r\nBit rate mode : Constant\r\nStream size : 0.00 Byte (0%)\r\nLanguage : English\r\nEncoded date : UTC 2016-03-13 \r\nTagged date : UTC 2016-03-13 07:35:29\r\n\r\n\r\n \nhttp://s22.postimg.org/o4bnoics1/image.jpg\r\n \nhttp://s22.postimg.org/v8tgxjk1d/image.jpg\r\n \nhttp://www.imdb.com/title/tt3700456/","torrent":{"xt":"urn:btih:7e965a7f166ef0bc1c9dc258e7b47f6ed0c0d197","amp;dn":"Blinky+Bill+the+Movie+%282015%29+1080P+WEB-DL+DD5+1+H+264","amp;tr":["udp%3A%2F%2Ftracker.leechers-paradise.org%3A6969","udp%3A%2F%2Fzer0day.ch%3A1337","udp%3A%2F%2Fopen.demonii.com%3A1337","udp%3A%2F%2Ftracker.coppersurfer.tk%3A6969","udp%3A%2F%2Fexodus.desync.com%3A6969"],"infoHash":"7e965a7f166ef0bc1c9dc258e7b47f6ed0c0d197","infoHashBuffer":{"type":"Buffer","data":[126,150,90,127,22,110,240,188,28,157,194,88,231,180,127,110,208,192,209,151]},"announce":[],"urlList":[]}}